<svg width="64" height="64" viewBox="0 0 64 64" fill="none" xmlns="http://www.w3.org/2000/svg">
<path d="M30.8842 3.43403C31.5931 3.75299 32.4071 3.75299 33.116 3.43403C42.7532 -0.90199 52.125 -1.31099 58.1234 3.23599C65.1964 8.59769 65.7216 19.4426 60.5737 30.8838C60.2546 31.593 60.2546 32.4059 60.5738 33.1151C65.7222 44.5567 65.1972 55.4021 58.124 60.764C52.1255 65.3111 42.7532 64.9021 33.1157 60.5657C32.4068 60.2468 31.5928 60.2468 30.8839 60.5657C21.2465 64.9019 11.8745 65.311 5.87614 60.7639C-1.19704 55.402 -1.72218 44.5566 3.42624 33.1151C3.74538 32.4059 3.74539 31.593 3.42627 30.8838C-1.72159 19.4426 -1.19625 8.59768 5.87676 3.23599C11.8751 -1.31098 21.247 -0.901994 30.8842 3.43403ZM8.31216 39.4642C7.11693 37.7381 4.44212 37.912 3.83848 39.9229C1.6177 47.3209 2.41195 53.6363 6.71577 56.8989C10.1742 59.5205 15.3351 59.7434 21.1462 57.9868C23.0804 57.4022 23.3206 54.8654 21.7263 53.6241C18.8728 51.4023 16.1092 48.8533 13.5235 46.0063C11.5857 43.8727 9.84652 41.6801 8.31216 39.4642ZM60.1615 39.9229C59.5579 37.912 56.8831 37.7381 55.6879 39.4642C54.1535 41.6801 52.4144 43.8726 50.4766 46.0062C47.8909 48.8533 45.1272 51.4022 42.2737 53.6241C40.6794 54.8654 40.9196 57.4022 42.8538 57.9868C48.665 59.7434 53.826 59.5206 57.2845 56.8989C61.5883 53.6363 62.3824 47.3209 60.1615 39.9229ZM33.2384 7.36117C32.4746 6.90659 31.5255 6.90659 30.7617 7.36117C25.7584 10.339 20.6859 14.4642 16.0972 19.5168C13.8775 21.9608 11.912 24.4664 10.2162 26.9728C9.70626 27.7265 9.65754 28.7001 10.0939 29.4986C12.2886 33.5148 15.2122 37.6269 18.8005 41.578C22.5254 45.6793 26.5689 49.1695 30.6354 51.9311C31.46 52.491 32.5402 52.491 33.3647 51.9311C37.4313 49.1695 41.4749 45.6793 45.1997 41.578C48.7881 37.6269 51.7116 33.5149 53.9062 29.4988C54.3426 28.7002 54.2939 27.7266 53.7839 26.9729C52.0881 24.4665 50.1228 21.9608 47.9031 19.5168C43.3143 14.4642 38.2418 10.339 33.2384 7.36117ZM31.9966 23.3349C36.3627 23.3349 39.9021 25.863 39.9021 28.9814C39.9021 32.0998 36.3627 34.6278 31.9966 34.6278C27.6305 34.6278 24.0911 32.0998 24.0911 28.9814C24.0911 25.863 27.6305 23.3349 31.9966 23.3349ZM54.5811 4.19574C50.933 1.43035 45.3906 1.33384 39.189 3.4143C37.2173 4.07575 37.1055 6.72124 38.8315 7.88148C42.9007 10.6168 46.8628 14.014 50.4771 17.9937C51.4531 19.0683 52.3787 20.1579 53.2531 21.258C54.5182 22.8496 57.0709 22.5662 57.6219 20.6091C59.6364 13.4542 58.7754 7.37526 54.5811 4.19574ZM25.1685 7.88151C26.8945 6.72126 26.7827 4.07576 24.811 3.41431C18.6095 1.33391 13.0672 1.43041 9.41915 4.19574C5.22483 7.37524 4.36383 13.4542 6.37823 20.609C6.92922 22.5661 9.482 22.8495 10.7471 21.2579C11.6215 20.1579 12.5471 19.0683 13.523 17.9937C17.1373 14.0141 21.0994 10.6169 25.1685 7.88151Z" fill="#141414"/>
</svg>
